<?xml version="1.0" encoding="UTF-8"?>
<svg id="_レイヤー_1" data-name="レイヤー_1" xmlns="http://www.w3.org/2000/svg" version="1.1" viewBox="0 0 18 18">
  <!-- Generator: Adobe Illustrator 29.3.1, SVG Export Plug-In . SVG Version: 2.1.0 Build 151)  -->
  <defs>
    <style>
      .st0 {
        fill: #444;
      }

      .st1 {
        fill: #ff0;
      }
    </style>
  </defs>
  <rect class="st1" x="1.31" y="9.68" width="15.38" height="7.23"/>
  <path class="st0" d="M11.35,12.9c-1.3-.05-2.95-.04-4.51,0-.2.65-.4,1.3-.58,1.88l-2.97-.02c1.2-3.64,2.99-8.68,4.26-12.21l3.31.18c1.01,3.22,3.06,9.09,4.02,12.03l-2.97.04c-.16-.56-.36-1.21-.56-1.9ZM7.64,10.25c.98-.02,1.96-.02,2.92,0-.45-1.5-.94-3.13-1.45-4.87-.4,1.29-.92,3.06-1.47,4.87Z"/>
</svg>